# Blender 4.3.0
# www.blender.org
mtllib mansion.mtl
o cube
v 0.125000 0.000000 0.875000
v 0.125000 0.250000 0.875000
v 0.125000 0.000000 0.125000
v 0.125000 0.250000 0.125000
v 0.875000 0.000000 0.875000
v 0.875000 0.250000 0.875000
v 0.875000 0.000000 0.125000
v 0.875000 0.250000 0.125000
v 0.062500 0.312500 0.937500
v 0.062500 0.875000 0.937500
v 0.937500 0.312500 0.937500
v 0.937500 0.875000 0.937500
v 0.062500 0.250000 0.875000
v 0.937500 0.250000 0.875000
v 0.062500 0.937500 1.000000
v 0.937500 0.937500 1.000000
v 0.937500 0.312500 0.937500
v 0.937500 0.875000 0.937500
v 0.937500 0.312500 0.062500
v 0.937500 0.875000 0.062500
v 0.875000 0.250000 0.937500
v 0.875000 0.250000 0.062500
v 1.000000 0.937500 0.937500
v 1.000000 0.937500 0.062500
v 0.937500 0.312500 0.062500
v 0.937500 0.875000 0.062500
v 0.062500 0.312500 0.062500
v 0.062500 0.875000 0.062500
v 0.937500 0.250000 0.125000
v 0.062500 0.250000 0.125000
v 0.937500 0.937500 -0.000000
v 0.062500 0.937500 -0.000000
v 0.062500 0.312500 0.062500
v 0.062500 0.875000 0.062500
v 0.062500 0.312500 0.937500
v 0.062500 0.875000 0.937500
v 0.125000 0.250000 0.062500
v 0.125000 0.250000 0.937500
v 0.000000 0.937500 0.062500
v 0.000000 0.937500 0.937500
v 0.875000 0.000000 0.875000
v 0.875000 0.312500 0.875000
v 0.875000 0.000000 0.125000
v 0.875000 0.312500 0.125000
v 0.125000 0.000000 0.125000
v 0.125000 0.312500 0.125000
v 0.125000 0.000000 0.875000
v 0.125000 0.312500 0.875000
v 0.062500 0.312500 0.937500
v 0.062500 0.875000 0.937500
v 0.937500 0.312500 0.937500
v 0.937500 0.875000 0.937500
v 0.062500 0.250000 0.875000
v 0.937500 0.250000 0.875000
v 0.062500 0.937500 1.000000
v 0.937500 0.937500 1.000000
v 0.937500 0.312500 0.937500
v 0.937500 0.875000 0.937500
v 0.937500 0.312500 0.062500
v 0.937500 0.875000 0.062500
v 0.875000 0.250000 0.937500
v 0.875000 0.250000 0.062500
v 1.000000 0.937500 0.937500
v 1.000000 0.937500 0.062500
v 0.937500 0.312500 0.062500
v 0.937500 0.875000 0.062500
v 0.062500 0.312500 0.062500
v 0.062500 0.875000 0.062500
v 0.062500 0.250000 0.125000
v 0.937500 0.937500 -0.000000
v 0.062500 0.937500 -0.000000
v 0.062500 0.312500 0.062500
v 0.062500 0.875000 0.062500
v 0.062500 0.312500 0.937500
v 0.062500 0.875000 0.937500
v 0.125000 0.250000 0.062500
v 0.125000 0.250000 0.937500
v 0.000000 0.937500 0.062500
v 0.000000 0.937500 0.937500
v 0.875000 0.000000 0.875000
v 0.875000 0.312500 0.875000
v 0.875000 0.000000 0.125000
v 0.875000 0.312500 0.125000
v 0.125000 0.000000 0.125000
v 0.125000 0.312500 0.125000
v 0.125000 0.000000 0.875000
v 0.125000 0.312500 0.875000
vn -1.0000 -0.0000 -0.0000
vn -0.0000 -0.0000 -1.0000
vn 1.0000 -0.0000 -0.0000
vn -0.0000 -0.0000 1.0000
vn -0.0000 -1.0000 -0.0000
vn -0.0000 1.0000 -0.0000
vn -0.0000 -0.7071 0.7071
vn 0.7071 -0.7071 -0.0000
vn -0.0000 -0.7071 -0.7071
vn -0.7071 -0.7071 -0.0000
vn -0.0000 0.7071 -0.7071
vn -0.7071 0.7071 -0.0000
vn -0.0000 0.7071 0.7071
vn 0.7071 0.7071 -0.0000
vt 0.937500 0.375000
vt 0.937500 0.500000
vt 0.562500 0.500000
vt 0.562500 0.375000
vt 0.562500 0.000000
vt 0.937500 0.000000
vt 0.562500 0.562500
vt 0.937500 0.562500
vt 0.937500 0.937500
vt 0.562500 0.937500
vt 0.468750 0.531250
vt 0.468750 0.812500
vt 0.031250 0.812500
vt 0.031250 0.531250
vt 0.031250 0.500000
vt 0.468750 0.500000
vt 0.468750 0.843750
vt 0.031250 0.843750
s 1
usemtl m_0
f 1/1/1 2/2/1 4/3/1 3/4/1
f 3/1/2 4/2/2 8/3/2 7/4/2
f 7/1/3 8/2/3 6/3/3 5/4/3
f 5/1/4 6/2/4 2/3/4 1/4/4
f 3/5/5 7/6/5 5/1/5 1/4/5
f 8/7/6 4/8/6 2/9/6 6/10/6
f 11/11/4 12/12/4 10/13/4 9/14/4
f 11/15/7 9/16/7 13/11/7 14/14/7
f 10/13/7 12/12/7 16/17/7 15/18/7
f 19/11/3 20/12/3 18/13/3 17/14/3
f 19/15/8 17/16/8 21/11/8 22/14/8
f 18/13/8 20/12/8 24/17/8 23/18/8
f 27/11/2 28/12/2 26/13/2 25/14/2
f 27/15/9 25/16/9 29/11/9 30/14/9
f 26/13/9 28/12/9 32/17/9 31/18/9
f 35/11/1 36/12/1 34/13/1 33/14/1
f 35/15/10 33/16/10 37/11/10 38/14/10
f 34/13/10 36/12/10 40/17/10 39/18/10
f 51/11/2 49/14/2 50/13/2 52/12/2
f 51/15/11 54/14/11 53/11/11 49/16/11
f 50/13/11 55/18/11 56/17/11 52/12/11
f 59/11/1 57/14/1 58/13/1 60/12/1
f 59/15/12 62/14/12 61/11/12 57/16/12
f 58/13/12 63/18/12 64/17/12 60/12/12
f 67/11/4 65/14/4 66/13/4 68/12/4
f 66/13/13 70/18/13 71/17/13 68/12/13
f 74/11/3 72/14/3 73/13/3 75/12/3
f 74/15/14 77/14/14 76/11/14 72/16/14
f 73/13/14 78/18/14 79/17/14 75/12/14
l 41 42
l 43 44
l 45 46
l 47 48
l 67 69
l 80 81
l 82 83
l 84 85
l 86 87
